<?xml version="1.0" encoding="UTF-8" standalone="no"?>
<!-- Created with Inkscape (http://www.inkscape.org/) -->
<svg
   xmlns:dc="http://purl.org/dc/elements/1.1/"
   xmlns:cc="http://creativecommons.org/ns#"
   xmlns:rdf="http://www.w3.org/1999/02/22-rdf-syntax-ns#"
   xmlns:svg="http://www.w3.org/2000/svg"
   xmlns="http://www.w3.org/2000/svg"
   xmlns:xlink="http://www.w3.org/1999/xlink"
   xmlns:sodipodi="http://sodipodi.sourceforge.net/DTD/sodipodi-0.dtd"
   xmlns:inkscape="http://www.inkscape.org/namespaces/inkscape"
   width="873.25586"
   height="1125.9949"
   id="svg3728"
   sodipodi:version="0.32"
   inkscape:version="0.45+devel+devel"
   version="1.0"
   sodipodi:docname="Logo Conseil Général Haute-Corse.svg"
   inkscape:output_extension="org.inkscape.output.svg.inkscape">
  <defs
     id="defs3730">
    <linearGradient
       id="linearGradient2893">
      <stop
         id="stop2895"
         offset="0"
         style="stop-color:white;stop-opacity:0.3137255;" />
      <stop
         style="stop-color:white;stop-opacity:0.25098041;"
         offset="0.19"
         id="stop2897" />
      <stop
         id="stop2901"
         offset="0.60000002"
         style="stop-color:#777777;stop-opacity:0.1254902;" />
      <stop
         id="stop2899"
         offset="1"
         style="stop-color:#7d7d7d;stop-opacity:0.3137255;" />
    </linearGradient>
    <radialGradient
       inkscape:collect="always"
       xlink:href="#linearGradient2893"
       id="radialGradient3344"
       gradientUnits="userSpaceOnUse"
       gradientTransform="matrix(-0.8674591,2.6452373,-3.0052915,-0.9855326,16.8565,-4544.084)"
       cx="989.02051"
       cy="636.22711"
       fx="989.02051"
       fy="636.22711"
       r="300" />
    <radialGradient
       inkscape:collect="always"
       xlink:href="#linearGradient2893"
       id="radialGradient3374"
       gradientUnits="userSpaceOnUse"
       gradientTransform="matrix(-0.8674591,2.6452373,-3.0052915,-0.9855326,16.8565,-4544.084)"
       cx="989.02051"
       cy="636.22711"
       fx="989.02051"
       fy="636.22711"
       r="300" />
  </defs>
  <sodipodi:namedview
     id="base"
     pagecolor="#ffffff"
     bordercolor="#666666"
     borderopacity="1.0"
     inkscape:pageopacity="0.0"
     inkscape:pageshadow="2"
     inkscape:zoom="0.24748738"
     inkscape:cx="1258.929"
     inkscape:cy="475.43091"
     inkscape:document-units="px"
     inkscape:current-layer="layer1"
     showgrid="false"
     inkscape:window-width="1280"
     inkscape:window-height="971"
     inkscape:window-x="0"
     inkscape:window-y="21"
     showguides="true"
     inkscape:guide-bbox="true" />
  <metadata
     id="metadata3733">
    <rdf:RDF>
      <cc:Work
         rdf:about="">
        <dc:format>image/svg+xml</dc:format>
        <dc:type
           rdf:resource="http://purl.org/dc/dcmitype/StillImage" />
        <dc:title>Logo du Conseil Général de la Haute-Corse</dc:title>
        <dc:date>2008 FEB 22</dc:date>
        <dc:creator>
          <cc:Agent>
            <dc:title>Jean-Bernard FRANCOIS (infofiltrage)</dc:title>
          </cc:Agent>
        </dc:creator>
        <dc:rights>
          <cc:Agent>
            <dc:title>Fair Use</dc:title>
          </cc:Agent>
        </dc:rights>
        <dc:publisher>
          <cc:Agent>
            <dc:title>Conseil Général de la Haute-Corse</dc:title>
          </cc:Agent>
        </dc:publisher>
        <dc:source />
        <dc:language>fr</dc:language>
        <dc:subject>
          <rdf:Bag>
            <rdf:li>Logo Conseil Général Haute-Corse</rdf:li>
          </rdf:Bag>
        </dc:subject>
        <dc:description>Logo du Conseil Général de la Haute-Corse</dc:description>
        <dc:contributor>
          <cc:Agent>
            <dc:title />
          </cc:Agent>
        </dc:contributor>
      </cc:Work>
    </rdf:RDF>
  </metadata>
  <g
     inkscape:label="Calque 1"
     inkscape:groupmode="layer"
     id="layer1"
     transform="translate(2954.2022,2780.898)">
    <rect
       style="fill:#cccccc;fill-opacity:1;fill-rule:evenodd;stroke:none;stroke-width:1px;stroke-linecap:butt;stroke-linejoin:miter;marker:none;marker-start:none;marker-mid:none;marker-end:none;stroke-miterlimit:4;stroke-dasharray:none;stroke-dashoffset:0;stroke-opacity:1;visibility:visible;display:inline;overflow:visible;enable-background:accumulate"
       id="rect2495"
       width="862.85712"
       height="862.85712"
       x="-2951.23"
       y="-2694.1736" />
    <path
       style="font-size:96.13527679px;font-style:normal;font-variant:normal;font-weight:normal;font-stretch:normal;text-align:start;line-height:125%;writing-mode:lr-tb;text-anchor:start;fill:#000000;fill-opacity:1;stroke:#000000;stroke-width:3;stroke-linecap:butt;stroke-linejoin:miter;stroke-miterlimit:4;stroke-opacity:1;font-family:SF Grandezza;-inkscape-font-specification:SF Grandezza"
       d="M -2885.2482,-2713.4541 L -2885.2482,-2741.8864 L -2939.5215,-2741.8864 L -2939.5215,-2713.4541 L -2948.1904,-2713.4541 L -2948.1904,-2779.398 L -2939.5215,-2779.398 L -2939.5215,-2750.8701 L -2885.2482,-2750.8701 L -2885.2482,-2779.398 L -2876.5792,-2779.398 L -2876.5792,-2713.4541 L -2885.2482,-2713.4541 z M -2828.2543,-2770.0799 L -2848.0823,-2734.5275 L -2808.3802,-2734.5275 L -2828.2543,-2770.0799 z M -2796.5757,-2713.4541 L -2803.4463,-2725.5438 L -2853.0163,-2725.5438 L -2859.8869,-2713.4541 L -2869.7547,-2713.4541 L -2833.0499,-2779.398 L -2823.4126,-2779.398 L -2786.6157,-2713.4541 L -2796.5757,-2713.4541 z M -2710.1165,-2746.3783 C -2710.1166,-2734.177 -2713.2522,-2725.4801 -2719.5233,-2720.2874 C -2725.0875,-2715.7319 -2733.8948,-2713.4541 -2745.9452,-2713.4541 C -2757.9957,-2713.4541 -2766.8031,-2715.7319 -2772.3672,-2720.2874 C -2778.6384,-2725.4801 -2781.7739,-2734.177 -2781.7739,-2746.3783 L -2781.7739,-2779.398 L -2773.1049,-2779.398 L -2773.1049,-2746.3783 C -2773.1049,-2736.7255 -2770.7994,-2730.1631 -2766.1882,-2726.6906 C -2762.3456,-2723.7598 -2755.5979,-2722.2944 -2745.9452,-2722.2944 C -2736.2926,-2722.2944 -2729.5449,-2723.7598 -2725.7023,-2726.6906 C -2721.0912,-2730.1631 -2718.7856,-2736.7255 -2718.7856,-2746.3783 L -2718.7856,-2779.398 L -2710.1165,-2779.398 L -2710.1165,-2746.3783 z M -2662.8984,-2770.4144 L -2662.8984,-2713.4541 L -2671.5673,-2713.4541 L -2671.5673,-2770.4144 L -2703.0615,-2770.4144 L -2703.0615,-2779.398 L -2631.4503,-2779.398 L -2631.4503,-2770.4144 L -2662.8984,-2770.4144 z M -2622.4585,-2713.4541 L -2622.4585,-2779.398 L -2558.6863,-2779.398 L -2558.6863,-2770.4144 L -2613.7896,-2770.4144 L -2613.7896,-2750.8701 L -2558.6863,-2750.8701 L -2558.6863,-2741.8864 L -2613.7896,-2741.8864 L -2613.7896,-2722.2944 L -2558.6863,-2722.2944 L -2558.6863,-2713.4541 L -2622.4585,-2713.4541 z M -2543.7001,-2742.6988 L -2543.7001,-2750.01 L -2511.422,-2750.01 L -2511.422,-2742.6988 L -2543.7001,-2742.6988 z M -2424.5478,-2729.0799 C -2430.2658,-2718.6626 -2442.3009,-2713.4541 -2460.6531,-2713.4541 C -2472.9496,-2713.4541 -2482.341,-2715.6681 -2488.8273,-2720.0963 C -2496.5433,-2725.5119 -2500.4013,-2734.2726 -2500.4013,-2746.3783 C -2500.4013,-2758.5157 -2496.5433,-2767.2923 -2488.8273,-2772.7081 C -2482.3102,-2777.168 -2472.9189,-2779.398 -2460.6531,-2779.398 C -2442.3624,-2779.398 -2430.3579,-2774.1734 -2424.6401,-2763.7245 L -2432.4791,-2759.806 C -2435.1228,-2764.2022 -2439.3036,-2767.1968 -2445.0213,-2768.7897 C -2448.7411,-2769.8727 -2453.9517,-2770.4143 -2460.6531,-2770.4144 C -2470.5825,-2770.4143 -2477.8836,-2768.9967 -2482.5561,-2766.1614 C -2488.6737,-2762.5297 -2491.7323,-2755.9353 -2491.7323,-2746.3783 C -2491.7323,-2736.8211 -2488.6737,-2730.2108 -2482.5561,-2726.5473 C -2477.7913,-2723.712 -2470.4904,-2722.2944 -2460.6531,-2722.2944 C -2453.9517,-2722.2944 -2448.7411,-2722.836 -2445.0213,-2723.9191 C -2439.3343,-2725.5119 -2435.1535,-2728.5065 -2432.4791,-2732.9028 L -2424.5478,-2729.0799 z M -2346.7576,-2746.3783 C -2346.7577,-2755.8716 -2349.8318,-2762.466 -2355.98,-2766.1614 C -2360.6527,-2768.9967 -2367.9383,-2770.4143 -2377.8368,-2770.4144 C -2387.797,-2770.4143 -2395.0979,-2769.0286 -2399.7398,-2766.257 C -2405.8573,-2762.5935 -2408.916,-2755.9672 -2408.916,-2746.3783 C -2408.916,-2736.8211 -2405.8573,-2730.2108 -2399.7398,-2726.5473 C -2395.0673,-2723.712 -2387.7662,-2722.2944 -2377.8368,-2722.2944 C -2367.9383,-2722.2944 -2360.6527,-2723.712 -2355.98,-2726.5473 C -2349.8318,-2730.2427 -2346.7577,-2736.853 -2346.7576,-2746.3783 L -2346.7576,-2746.3783 z M -2338.0887,-2746.3783 C -2338.0888,-2734.2089 -2341.9468,-2725.4164 -2349.6627,-2720.0007 C -2356.1491,-2715.6363 -2365.5405,-2713.4541 -2377.8368,-2713.4541 C -2390.1333,-2713.4541 -2399.5247,-2715.6363 -2406.011,-2720.0007 C -2413.727,-2725.4164 -2417.585,-2734.2089 -2417.585,-2746.3783 C -2417.585,-2758.5157 -2413.727,-2767.2923 -2406.011,-2772.7081 C -2399.4939,-2777.168 -2390.1026,-2779.398 -2377.8368,-2779.398 C -2365.5713,-2779.398 -2356.1798,-2777.168 -2349.6627,-2772.7081 C -2341.9468,-2767.2923 -2338.0888,-2758.5157 -2338.0887,-2746.3783 L -2338.0887,-2746.3783 z M -2264.2181,-2760.6184 C -2264.2182,-2767.149 -2273.1792,-2770.4143 -2291.1011,-2770.4144 L -2318.4913,-2770.4144 L -2318.4913,-2750.8701 L -2290.4094,-2750.8701 C -2272.9485,-2750.8701 -2264.2182,-2754.1195 -2264.2181,-2760.6184 L -2264.2181,-2760.6184 z M -2267.1692,-2713.4541 L -2294.7439,-2741.8864 L -2318.4913,-2741.8864 L -2318.4913,-2713.4541 L -2327.1603,-2713.4541 L -2327.1603,-2779.398 L -2293.6372,-2779.398 C -2283.1854,-2779.398 -2275.2541,-2778.5857 -2269.8437,-2776.961 C -2260.314,-2774.1575 -2255.5491,-2768.71 -2255.5491,-2760.6184 C -2255.5491,-2749.4365 -2264.6485,-2743.304 -2282.8472,-2742.221 L -2254.9958,-2713.4541 L -2267.1692,-2713.4541 z M -2161.1588,-2732.0904 C -2161.1588,-2723.8394 -2166.1697,-2718.3281 -2176.1911,-2715.5567 C -2181.6016,-2714.1549 -2189.8402,-2713.4541 -2200.9069,-2713.4541 C -2210.9285,-2713.4541 -2218.3986,-2713.9638 -2223.3172,-2714.9832 C -2232.5702,-2717.0221 -2238.1651,-2721.2272 -2240.1017,-2727.5986 L -2231.6633,-2730.0356 C -2230.0034,-2726.4039 -2224.9157,-2724.0465 -2216.4004,-2722.9633 C -2214.556,-2722.7085 -2212.1275,-2722.5174 -2209.1148,-2722.3899 C -2206.1022,-2722.2626 -2202.4286,-2722.1988 -2198.0941,-2722.1988 C -2179.2499,-2722.1988 -2169.8278,-2725.496 -2169.8278,-2732.0904 C -2169.8278,-2736.7734 -2174.5159,-2739.7839 -2183.8918,-2741.1218 C -2185.6441,-2741.3767 -2188.1033,-2741.5678 -2191.2696,-2741.6953 C -2194.436,-2741.8227 -2198.3863,-2741.8864 -2203.1203,-2741.8864 C -2213.2034,-2741.8864 -2221.0116,-2742.7307 -2226.545,-2744.4191 C -2235.9517,-2747.2862 -2240.6551,-2752.6859 -2240.6551,-2760.6184 C -2240.6551,-2768.9011 -2235.6443,-2774.4283 -2225.6227,-2777.1999 C -2220.366,-2778.6653 -2212.1275,-2779.398 -2200.9069,-2779.398 C -2190.8239,-2779.398 -2183.2924,-2778.8246 -2178.3123,-2777.6777 C -2168.9671,-2775.5115 -2163.403,-2771.163 -2161.62,-2764.6323 L -2170.0584,-2762.4342 C -2171.5954,-2766.1933 -2176.5755,-2768.6304 -2184.9985,-2769.7454 C -2186.7815,-2770.0002 -2189.21,-2770.1913 -2192.2841,-2770.3188 C -2195.3582,-2770.4461 -2199.124,-2770.5099 -2203.5814,-2770.51 C -2222.5179,-2770.5099 -2231.9861,-2767.2127 -2231.9861,-2760.6184 C -2231.9861,-2755.999 -2227.4211,-2753.0204 -2218.291,-2751.6825 C -2216.5081,-2751.4276 -2214.0641,-2751.2284 -2210.9593,-2751.0851 C -2207.8544,-2750.9418 -2204.0272,-2750.8701 -2199.4775,-2750.8701 C -2188.9027,-2750.8701 -2180.9254,-2750.0418 -2175.5455,-2748.3853 C -2165.9545,-2745.55 -2161.1588,-2740.1183 -2161.1588,-2732.0904 L -2161.1588,-2732.0904 z M -2146.2186,-2713.4541 L -2146.2186,-2779.398 L -2082.4463,-2779.398 L -2082.4463,-2770.4144 L -2137.5497,-2770.4144 L -2137.5497,-2750.8701 L -2082.4463,-2750.8701 L -2082.4463,-2741.8864 L -2137.5497,-2741.8864 L -2137.5497,-2722.2944 L -2082.4463,-2722.2944 L -2082.4463,-2713.4541 L -2146.2186,-2713.4541 z"
       id="text2491" />
    <path
       style="fill:#3771c8;fill-rule:evenodd;stroke:none;stroke-width:1px;stroke-linecap:butt;stroke-linejoin:miter;stroke-opacity:1"
       d="M -2694.0871,-2605.6022 L -2521.23,-2604.1737 L -2605.5157,-2362.7451 L -2551.23,-2361.3165 C -2487.8221,-2558.8568 -2328.7761,-2623.1876 -2121.23,-2594.1737 L -2164.0872,-2435.6022 C -2272.4617,-2446.312 -2368.2403,-2429.3106 -2401.23,-2274.1737 C -2400.9665,-2160.7538 -2346.6404,-2116.4139 -2278.3729,-2089.8879 L -2332.6586,-1932.7451 C -2440.8416,-1969.9944 -2526.0995,-2041.6313 -2558.3729,-2192.7451 L -2658.3729,-2197.0308 L -2742.6586,-1937.0308 L -2918.3729,-1939.888 L -2826.9443,-2189.8879 L -2861.23,-2191.3165 L -2811.23,-2358.4594 L -2775.5157,-2358.4594 L -2694.0871,-2605.6022 z"
       id="path2497"
       sodipodi:nodetypes="cccccccccccccccccc" />
    <path
       style="fill:none;fill-opacity:1;fill-rule:evenodd;stroke:#808080;stroke-width:8;stroke-linecap:butt;stroke-linejoin:miter;marker:none;marker-start:none;marker-mid:none;marker-end:none;stroke-miterlimit:4;stroke-dasharray:none;stroke-dashoffset:0;stroke-opacity:1;visibility:visible;display:inline;overflow:visible;enable-background:accumulate"
       d="M -2344.0871,-2219.8879 L -2312.6586,-2314.1737 L -2238.3729,-2219.8879 L -2272.6586,-2118.4594 L -2344.0871,-2219.8879 z"
       id="path2499" />
    <path
       style="fill:#fcef3c;fill-opacity:1;fill-rule:evenodd;stroke:none;stroke-width:1px;stroke-linecap:butt;stroke-linejoin:miter;marker:none;marker-start:none;marker-mid:none;marker-end:none;stroke-miterlimit:4;stroke-dasharray:none;stroke-dashoffset:0;stroke-opacity:1;visibility:visible;display:inline;overflow:visible;enable-background:accumulate"
       d="M -2314.6586,-2310.1737 L -2297.5157,-2351.6022 L -2227.5157,-2364.4594 L -2218.9443,-2395.888 L -2180.3729,-2410.1737 L -2183.23,-2367.3165 L -2190.2383,-2362.7639 L -2191.8002,-2346.1675 L -2205.3729,-2312.6737 L -2207.5157,-2286.9594 L -2221.8014,-2267.6737 L -2227.8008,-2222.6975 L -2240.4837,-2215.8704 L -2314.6586,-2310.1737 z"
       id="path2501"
       sodipodi:nodetypes="cccccccccccccc" />
    <path
       style="font-size:84.24321747px;font-style:normal;font-variant:normal;font-weight:normal;font-stretch:normal;text-align:start;line-height:125%;writing-mode:lr-tb;text-anchor:start;fill:#000000;fill-opacity:1;stroke:#000000;stroke-width:3;stroke-linecap:butt;stroke-linejoin:miter;stroke-miterlimit:4;stroke-opacity:1;font-family:SF Grandezza;-inkscape-font-specification:SF Grandezza"
       d="M -2894.4544,-1759.9224 C -2898.8452,-1749.5052 -2908.087,-1744.2966 -2922.1797,-1744.2966 C -2931.6221,-1744.2966 -2938.8337,-1746.5107 -2943.8146,-1750.9387 C -2949.7397,-1756.3544 -2952.7022,-1765.1151 -2952.7022,-1777.2209 C -2952.7022,-1789.3583 -2949.7397,-1798.1349 -2943.8146,-1803.5506 C -2938.8102,-1808.0106 -2931.5985,-1810.2406 -2922.1797,-1810.2406 C -2908.1341,-1810.2406 -2898.916,-1805.016 -2894.5252,-1794.5669 L -2900.5448,-1790.6485 C -2902.5749,-1795.0447 -2905.7853,-1798.0393 -2910.176,-1799.6322 C -2913.0324,-1800.7153 -2917.0336,-1801.2568 -2922.1797,-1801.257 C -2929.8044,-1801.2568 -2935.4109,-1799.8392 -2938.9989,-1797.004 C -2943.6966,-1793.3722 -2946.0454,-1786.7779 -2946.0454,-1777.2209 C -2946.0454,-1767.6637 -2943.6966,-1761.0534 -2938.9989,-1757.3898 C -2935.34,-1754.5545 -2929.7337,-1753.1369 -2922.1797,-1753.1369 C -2917.0336,-1753.1369 -2913.0324,-1753.6785 -2910.176,-1754.7616 C -2905.809,-1756.3544 -2902.5985,-1759.349 -2900.5448,-1763.7453 L -2894.4544,-1759.9224 z M -2834.7194,-1777.2209 C -2834.7194,-1786.7142 -2837.08,-1793.3085 -2841.8012,-1797.004 C -2845.3894,-1799.8392 -2850.984,-1801.2568 -2858.585,-1801.257 C -2866.2334,-1801.2568 -2871.8398,-1799.8711 -2875.4044,-1797.0996 C -2880.102,-1793.436 -2882.4507,-1786.8097 -2882.4507,-1777.2209 C -2882.4507,-1767.6637 -2880.102,-1761.0534 -2875.4044,-1757.3898 C -2871.8162,-1754.5545 -2866.2099,-1753.1369 -2858.585,-1753.1369 C -2850.984,-1753.1369 -2845.3894,-1754.5545 -2841.8012,-1757.3898 C -2837.08,-1761.0852 -2834.7194,-1767.6956 -2834.7194,-1777.2209 L -2834.7194,-1777.2209 z M -2828.0625,-1777.2209 C -2828.0626,-1765.0514 -2831.0251,-1756.2589 -2836.9501,-1750.8432 C -2841.9311,-1746.4788 -2849.1427,-1744.2966 -2858.585,-1744.2966 C -2868.0275,-1744.2966 -2875.2391,-1746.4788 -2880.22,-1750.8432 C -2886.1451,-1756.2589 -2889.1077,-1765.0514 -2889.1077,-1777.2209 C -2889.1077,-1789.3583 -2886.1451,-1798.1349 -2880.22,-1803.5506 C -2875.2155,-1808.0106 -2868.0039,-1810.2406 -2858.585,-1810.2406 C -2849.1664,-1810.2406 -2841.9547,-1808.0106 -2836.9501,-1803.5506 C -2831.0251,-1798.1349 -2828.0626,-1789.3583 -2828.0625,-1777.2209 L -2828.0625,-1777.2209 z M -2771.1248,-1744.2966 L -2813.0137,-1797.4341 L -2813.0137,-1744.2966 L -2819.6706,-1744.2966 L -2819.6706,-1810.2406 L -2813.1907,-1810.2406 L -2771.3372,-1756.9598 L -2771.3372,-1810.2406 L -2764.6804,-1810.2406 L -2764.6804,-1744.2966 L -2771.1248,-1744.2966 z M -2692.1981,-1762.933 C -2692.1982,-1754.6819 -2696.0459,-1749.1707 -2703.7414,-1746.3992 C -2707.8962,-1744.9975 -2714.2225,-1744.2966 -2722.7206,-1744.2966 C -2730.4162,-1744.2966 -2736.1525,-1744.8063 -2739.9294,-1745.8258 C -2747.0348,-1747.8645 -2751.3311,-1752.0698 -2752.8183,-1758.4411 L -2746.3384,-1760.8782 C -2745.0637,-1757.2465 -2741.1569,-1754.8891 -2734.6181,-1753.8059 C -2733.2017,-1753.551 -2731.3369,-1753.3599 -2729.0234,-1753.2325 C -2726.7101,-1753.1051 -2723.8892,-1753.0414 -2720.5607,-1753.0414 C -2706.0903,-1753.0414 -2698.855,-1756.3385 -2698.8549,-1762.933 C -2698.855,-1767.6159 -2702.455,-1770.6264 -2709.6547,-1771.9644 C -2711.0003,-1772.2192 -2712.8888,-1772.4104 -2715.3201,-1772.5378 C -2717.7516,-1772.6653 -2720.785,-1772.7289 -2724.4203,-1772.7289 C -2732.1631,-1772.7289 -2738.159,-1773.5731 -2742.408,-1775.2617 C -2749.6316,-1778.1287 -2753.2433,-1783.5285 -2753.2433,-1791.4609 C -2753.2433,-1799.7436 -2749.3954,-1805.2708 -2741.6999,-1808.0424 C -2737.6632,-1809.5078 -2731.3369,-1810.2406 -2722.7206,-1810.2406 C -2714.9779,-1810.2406 -2709.1944,-1809.6671 -2705.3703,-1808.5203 C -2698.1941,-1806.354 -2693.9214,-1802.0054 -2692.5522,-1795.4749 L -2699.032,-1793.2767 C -2700.2124,-1797.0358 -2704.0365,-1799.4728 -2710.5046,-1800.5879 C -2711.8737,-1800.8427 -2713.7386,-1801.0338 -2716.0992,-1801.1614 C -2718.4598,-1801.2887 -2721.3515,-1801.3525 -2724.7744,-1801.3525 C -2739.3157,-1801.3525 -2746.5863,-1798.0552 -2746.5863,-1791.4609 C -2746.5863,-1786.8415 -2743.0809,-1783.8629 -2736.0699,-1782.525 C -2734.7008,-1782.2701 -2732.8241,-1782.071 -2730.4398,-1781.9277 C -2728.0556,-1781.7843 -2725.1167,-1781.7127 -2721.6229,-1781.7127 C -2713.5025,-1781.7127 -2707.3768,-1780.8844 -2703.2457,-1779.2278 C -2695.8807,-1776.3925 -2692.1982,-1770.9608 -2692.1981,-1762.933 L -2692.1981,-1762.933 z M -2680.7255,-1744.2966 L -2680.7255,-1810.2406 L -2631.7549,-1810.2406 L -2631.7549,-1801.257 L -2674.0687,-1801.257 L -2674.0687,-1781.7127 L -2631.7549,-1781.7127 L -2631.7549,-1772.7289 L -2674.0687,-1772.7289 L -2674.0687,-1753.1369 L -2631.7549,-1753.1369 L -2631.7549,-1744.2966 L -2680.7255,-1744.2966 z M -2620.2469,-1744.2966 L -2620.2469,-1810.2406 L -2613.5901,-1810.2406 L -2613.5901,-1744.2966 L -2620.2469,-1744.2966 z M -2602.1175,-1744.2966 L -2602.1175,-1810.2406 L -2595.4606,-1810.2406 L -2595.4606,-1753.1369 L -2553.1468,-1753.1369 L -2553.1468,-1744.2966 L -2602.1175,-1744.2966 z M -2466.8551,-1790.6485 C -2468.8853,-1795.0447 -2472.0957,-1798.0393 -2476.4863,-1799.6322 C -2479.3427,-1800.7153 -2483.3439,-1801.2568 -2488.49,-1801.257 C -2496.1148,-1801.2568 -2501.7211,-1799.8392 -2505.3093,-1797.004 C -2510.0069,-1793.3404 -2512.3556,-1786.746 -2512.3556,-1777.2209 C -2512.3556,-1767.6637 -2510.0069,-1761.0534 -2505.3093,-1757.3898 C -2501.6504,-1754.5545 -2496.0439,-1753.1369 -2488.49,-1753.1369 C -2486.0586,-1753.1369 -2483.9046,-1753.2564 -2482.0278,-1753.4953 C -2480.1512,-1753.7342 -2478.5047,-1754.0767 -2477.0883,-1754.5227 C -2472.8628,-1755.9562 -2469.6761,-1758.6003 -2467.5278,-1762.455 L -2467.5278,-1772.7289 L -2488.8087,-1772.7289 L -2488.8087,-1781.7127 L -2460.8709,-1781.7127 L -2460.8709,-1744.2966 L -2467.5278,-1744.2966 L -2467.5278,-1750.3653 C -2472.5796,-1746.3195 -2479.5669,-1744.2966 -2488.49,-1744.2966 C -2497.9324,-1744.2966 -2505.1441,-1746.5107 -2510.1249,-1750.9387 C -2516.05,-1756.3544 -2519.0126,-1765.1151 -2519.0126,-1777.2209 C -2519.0126,-1789.3583 -2516.05,-1798.1349 -2510.1249,-1803.5506 C -2505.1204,-1808.0106 -2497.9088,-1810.2406 -2488.49,-1810.2406 C -2474.4445,-1810.2406 -2465.2263,-1805.016 -2460.8355,-1794.5669 L -2466.8551,-1790.6485 z M -2449.4339,-1744.2966 L -2449.4339,-1810.2406 L -2400.4632,-1810.2406 L -2400.4632,-1801.257 L -2442.777,-1801.257 L -2442.777,-1781.7127 L -2400.4632,-1781.7127 L -2400.4632,-1772.7289 L -2442.777,-1772.7289 L -2442.777,-1753.1369 L -2400.4632,-1753.1369 L -2400.4632,-1744.2966 L -2449.4339,-1744.2966 z M -2340.4095,-1744.2966 L -2382.2983,-1797.4341 L -2382.2983,-1744.2966 L -2388.9552,-1744.2966 L -2388.9552,-1810.2406 L -2382.4754,-1810.2406 L -2340.6219,-1756.9598 L -2340.6219,-1810.2406 L -2333.965,-1810.2406 L -2333.965,-1744.2966 L -2340.4095,-1744.2966 z M -2322.5279,-1744.2966 L -2322.5279,-1810.2406 L -2273.5573,-1810.2406 L -2273.5573,-1801.257 L -2315.871,-1801.257 L -2315.871,-1781.7127 L -2273.5573,-1781.7127 L -2273.5573,-1772.7289 L -2315.871,-1772.7289 L -2315.871,-1753.1369 L -2273.5573,-1753.1369 L -2273.5573,-1744.2966 L -2322.5279,-1744.2966 z M -2213.716,-1791.4609 C -2213.716,-1797.9916 -2220.5972,-1801.2568 -2234.3595,-1801.257 L -2255.3924,-1801.257 L -2255.3924,-1781.7127 L -2233.8283,-1781.7127 C -2220.4201,-1781.7127 -2213.716,-1784.962 -2213.716,-1791.4609 L -2213.716,-1791.4609 z M -2215.9822,-1744.2966 L -2237.1568,-1772.7289 L -2255.3924,-1772.7289 L -2255.3924,-1744.2966 L -2262.0493,-1744.2966 L -2262.0493,-1810.2406 L -2236.307,-1810.2406 C -2228.281,-1810.2406 -2222.1907,-1809.4282 -2218.0359,-1807.8036 C -2210.7181,-1805.0001 -2207.0592,-1799.5525 -2207.0591,-1791.4609 C -2207.0592,-1780.279 -2214.0466,-1774.1466 -2228.0213,-1773.0635 L -2206.6342,-1744.2966 L -2215.9822,-1744.2966 z M -2169.9504,-1800.9224 L -2185.1763,-1765.37 L -2154.6891,-1765.37 L -2169.9504,-1800.9224 z M -2145.6244,-1744.2966 L -2150.9003,-1756.3864 L -2188.9651,-1756.3864 L -2194.241,-1744.2966 L -2201.8186,-1744.2966 L -2173.633,-1810.2406 L -2166.2325,-1810.2406 L -2137.9761,-1744.2966 L -2145.6244,-1744.2966 z M -2132.7355,-1744.2966 L -2132.7355,-1810.2406 L -2126.0787,-1810.2406 L -2126.0787,-1753.1369 L -2083.7649,-1753.1369 L -2083.7649,-1744.2966 L -2132.7355,-1744.2966 z"
       id="text3275" />
    <path
       style="font-size:83.55761719px;font-style:normal;font-variant:normal;font-weight:normal;font-stretch:normal;text-align:start;line-height:125%;writing-mode:lr-tb;text-anchor:start;fill:#3771c8;fill-opacity:1;fill-rule:evenodd;stroke:#000000;stroke-width:1px;stroke-linecap:butt;stroke-linejoin:miter;marker:none;marker-start:none;marker-mid:none;marker-end:none;stroke-miterlimit:4;stroke-dashoffset:0;stroke-opacity:1;visibility:visible;display:inline;overflow:visible;enable-background:accumulate;font-family:SF Grandezza;-inkscape-font-specification:SF Grandezza"
       d="M -2897.5151,-1655.4032 L -2904.5519,-1655.4032 L -2914.0618,-1691.4813 L -2923.6415,-1655.4032 L -2930.6433,-1655.4032 L -2947.4337,-1705.0524 L -2940.3274,-1705.0524 L -2927.5081,-1667.2541 L -2917.3711,-1705.0524 L -2910.6828,-1705.0524 L -2900.6851,-1667.2541 L -2887.831,-1705.0524 L -2880.655,-1705.0524 L -2897.5151,-1655.4032 z M -2831.6073,-1655.4032 L -2838.644,-1655.4032 L -2848.1539,-1691.4813 L -2857.7336,-1655.4032 L -2864.7354,-1655.4032 L -2881.5259,-1705.0524 L -2874.4195,-1705.0524 L -2861.6002,-1667.2541 L -2851.4632,-1705.0524 L -2844.7749,-1705.0524 L -2834.7772,-1667.2541 L -2821.9232,-1705.0524 L -2814.7471,-1705.0524 L -2831.6073,-1655.4032 z M -2765.6994,-1655.4032 L -2772.7361,-1655.4032 L -2782.246,-1691.4813 L -2791.8257,-1655.4032 L -2798.8275,-1655.4032 L -2815.618,-1705.0524 L -2808.5116,-1705.0524 L -2795.6924,-1667.2541 L -2785.5554,-1705.0524 L -2778.867,-1705.0524 L -2768.8694,-1667.2541 L -2756.0153,-1705.0524 L -2748.8393,-1705.0524 L -2765.6994,-1655.4032 z M -2743.6837,-1655.4032 L -2743.6837,-1664.2436 L -2737.1347,-1664.2436 L -2737.1347,-1655.4032 L -2743.6837,-1655.4032 z M -2687.2161,-1655.4032 L -2687.2161,-1680.1562 C -2687.2162,-1686.6231 -2688.8186,-1691.0512 -2692.0233,-1693.4405 C -2694.3457,-1695.1926 -2698.0847,-1696.0687 -2703.2402,-1696.0687 C -2708.4887,-1696.0687 -2712.2393,-1695.1926 -2714.4919,-1693.4405 C -2717.6967,-1691.083 -2719.2992,-1686.655 -2719.2992,-1680.1562 L -2719.2992,-1655.4032 L -2725.8481,-1655.4032 L -2725.8481,-1721.3472 L -2719.2992,-1721.3472 L -2719.2992,-1699.8916 C -2715.5137,-1703.332 -2710.1608,-1705.0523 -2703.2402,-1705.0524 C -2688.1915,-1705.0523 -2680.6672,-1696.7536 -2680.6671,-1680.1562 L -2680.6671,-1655.4032 L -2687.2161,-1655.4032 z M -2635.1377,-1680.1562 C -2635.1378,-1686.655 -2636.7402,-1691.083 -2639.945,-1693.4405 C -2642.1977,-1695.1926 -2645.9482,-1696.0687 -2651.1967,-1696.0687 C -2656.3523,-1696.0687 -2660.0913,-1695.1926 -2662.4136,-1693.4405 C -2665.6184,-1691.0512 -2667.2208,-1686.6231 -2667.2208,-1680.1562 C -2667.2208,-1673.6892 -2665.6184,-1669.261 -2662.4136,-1666.8718 C -2660.0913,-1665.1197 -2656.3523,-1664.2436 -2651.1967,-1664.2436 C -2646.0179,-1664.2436 -2642.2674,-1665.1197 -2639.945,-1666.8718 C -2636.7402,-1669.261 -2635.1378,-1673.6892 -2635.1377,-1680.1562 L -2635.1377,-1680.1562 z M -2635.1377,-1655.4032 L -2635.1377,-1660.3252 C -2638.8535,-1657.0439 -2644.2065,-1655.4032 -2651.1967,-1655.4032 C -2666.2454,-1655.4032 -2673.7698,-1663.6542 -2673.7698,-1680.1562 C -2673.7698,-1696.7536 -2666.2454,-1705.0523 -2651.1967,-1705.0524 C -2644.2065,-1705.0523 -2638.8535,-1703.3639 -2635.1377,-1699.9871 L -2635.1377,-1705.0524 L -2628.5888,-1705.0524 L -2628.5888,-1655.4032 L -2635.1377,-1655.4032 z M -2580.1332,-1655.4032 L -2580.1332,-1660.4207 C -2583.9419,-1657.0757 -2589.2949,-1655.4032 -2596.1922,-1655.4032 C -2611.2642,-1655.4032 -2618.8001,-1663.6542 -2618.8001,-1680.1562 L -2618.8001,-1705.0524 L -2612.2512,-1705.0524 L -2612.2512,-1680.1562 C -2612.2512,-1673.6892 -2610.6487,-1669.261 -2607.4439,-1666.8718 C -2605.1216,-1665.1197 -2601.371,-1664.2436 -2596.1922,-1664.2436 C -2590.9437,-1664.2436 -2587.1932,-1665.1197 -2584.9405,-1666.8718 C -2581.7357,-1669.1973 -2580.1333,-1673.6255 -2580.1332,-1680.1562 L -2580.1332,-1705.0524 L -2573.5843,-1705.0524 L -2573.5843,-1655.4032 L -2580.1332,-1655.4032 z M -2546.7961,-1696.0687 L -2546.7961,-1655.4032 L -2553.3451,-1655.4032 L -2553.3451,-1696.0687 L -2565.2239,-1696.0687 L -2565.2239,-1705.0524 L -2553.3451,-1705.0524 L -2553.3451,-1721.3472 L -2546.7961,-1721.3472 L -2546.7961,-1705.0524 L -2534.9174,-1705.0524 L -2534.9174,-1696.0687 L -2546.7961,-1696.0687 z M -2491.1994,-1684.648 C -2491.8497,-1689.3627 -2493.8585,-1692.5962 -2497.2259,-1694.3484 C -2499.4321,-1695.4953 -2502.6834,-1696.0687 -2506.9797,-1696.0687 C -2511.2993,-1696.0687 -2514.5506,-1695.4953 -2516.7335,-1694.3484 C -2520.1009,-1692.6918 -2522.0981,-1689.4583 -2522.7251,-1684.648 L -2491.1994,-1684.648 z M -2484.3718,-1680.1562 C -2484.3718,-1679.5827 -2484.3892,-1678.9216 -2484.424,-1678.1731 C -2484.4589,-1677.4244 -2484.5227,-1676.5882 -2484.6156,-1675.6643 L -2522.7251,-1675.6643 C -2522.1214,-1670.9494 -2520.1241,-1667.7159 -2516.7335,-1665.9639 C -2514.5041,-1664.817 -2511.2528,-1664.2436 -2506.9797,-1664.2436 C -2503.4033,-1664.2436 -2500.7442,-1664.5462 -2499.0025,-1665.1515 C -2496.0764,-1666.1391 -2493.8934,-1668.0982 -2492.4535,-1671.0291 L -2486.4618,-1667.1108 C -2489.7829,-1659.3057 -2496.6221,-1655.4032 -2506.9797,-1655.4032 C -2522.0285,-1655.4032 -2529.5528,-1663.6542 -2529.5528,-1680.1562 C -2529.5528,-1696.7536 -2522.0285,-1705.0523 -2506.9797,-1705.0524 C -2491.9077,-1705.0523 -2484.3718,-1696.7536 -2484.3718,-1680.1562 L -2484.3718,-1680.1562 z M -2476.0114,-1684.648 L -2476.0114,-1691.9592 L -2451.6268,-1691.9592 L -2451.6268,-1684.648 L -2476.0114,-1684.648 z M -2400.071,-1667.3497 C -2403.2991,-1659.3854 -2410.1848,-1655.4032 -2420.7282,-1655.4032 C -2435.7769,-1655.4032 -2443.3013,-1663.6542 -2443.3013,-1680.1562 C -2443.3013,-1696.7536 -2435.7769,-1705.0523 -2420.7282,-1705.0524 C -2410.208,-1705.0523 -2403.3223,-1700.9905 -2400.071,-1692.867 L -2406.0974,-1689.0443 C -2407.4909,-1692.0387 -2409.6739,-1694.0457 -2412.6465,-1695.0652 C -2414.5044,-1695.7342 -2417.1982,-1696.0687 -2420.7282,-1696.0687 C -2425.9534,-1696.0687 -2429.6924,-1695.1926 -2431.9451,-1693.4405 C -2435.1499,-1691.083 -2436.7523,-1686.655 -2436.7523,-1680.1562 C -2436.7523,-1673.6892 -2435.1499,-1669.261 -2431.9451,-1666.8718 C -2429.6227,-1665.1197 -2425.8837,-1664.2436 -2420.7282,-1664.2436 C -2417.1982,-1664.2436 -2414.5044,-1664.5781 -2412.6465,-1665.2471 C -2409.6739,-1666.2028 -2407.4909,-1668.1779 -2406.0974,-1671.1724 L -2400.071,-1667.3497 z M -2356.1789,-1680.1562 C -2356.1789,-1686.6231 -2357.7813,-1691.0512 -2360.9861,-1693.4405 C -2363.3084,-1695.1926 -2367.059,-1696.0687 -2372.2378,-1696.0687 C -2377.4631,-1696.0687 -2381.202,-1695.1926 -2383.4547,-1693.4405 C -2386.6595,-1691.083 -2388.2619,-1686.655 -2388.2619,-1680.1562 C -2388.2619,-1673.6892 -2386.6595,-1669.261 -2383.4547,-1666.8718 C -2381.1324,-1665.1197 -2377.3935,-1664.2436 -2372.2378,-1664.2436 C -2367.059,-1664.2436 -2363.3084,-1665.1197 -2360.9861,-1666.8718 C -2357.7813,-1669.261 -2356.1789,-1673.6892 -2356.1789,-1680.1562 L -2356.1789,-1680.1562 z M -2349.6298,-1680.1562 C -2349.6299,-1663.6542 -2357.1659,-1655.4032 -2372.2378,-1655.4032 C -2387.2865,-1655.4032 -2394.8109,-1663.6542 -2394.8109,-1680.1562 C -2394.8109,-1696.7536 -2387.2865,-1705.0523 -2372.2378,-1705.0524 C -2357.1659,-1705.0523 -2349.6299,-1696.7536 -2349.6298,-1680.1562 L -2349.6298,-1680.1562 z M -2304.0309,-1689.0443 C -2305.4243,-1692.0387 -2307.6073,-1694.0457 -2310.5798,-1695.0652 C -2312.4377,-1695.7342 -2315.1317,-1696.0687 -2318.6616,-1696.0687 C -2323.9101,-1696.0687 -2327.6606,-1695.1926 -2329.9133,-1693.4405 C -2333.1181,-1691.083 -2334.7205,-1686.655 -2334.7205,-1680.1562 L -2334.7205,-1655.4032 L -2341.2694,-1655.4032 L -2341.2694,-1705.0524 L -2334.7205,-1705.0524 L -2334.7205,-1699.9871 C -2331.0745,-1703.3639 -2325.7214,-1705.0523 -2318.6616,-1705.0524 C -2308.1647,-1705.0523 -2301.2905,-1700.9905 -2298.0392,-1692.867 L -2304.0309,-1689.0443 z M -2246.0654,-1669.9778 C -2246.0654,-1663.702 -2248.7593,-1659.4491 -2254.1471,-1657.2191 C -2257.2823,-1656.0085 -2261.8341,-1655.4032 -2267.8024,-1655.4032 C -2273.8637,-1655.4032 -2278.1253,-1655.6899 -2280.5869,-1656.2633 C -2285.9051,-1657.6332 -2289.284,-1660.5641 -2290.7239,-1665.056 L -2284.5929,-1668.8309 C -2283.5943,-1666.601 -2280.9584,-1665.1834 -2276.6853,-1664.5781 C -2274.9436,-1664.2914 -2271.8317,-1664.148 -2267.3495,-1664.148 C -2257.5261,-1664.148 -2252.6144,-1666.0913 -2252.6143,-1669.9778 C -2252.6144,-1672.6857 -2255.0412,-1674.4219 -2259.8948,-1675.1865 C -2260.8703,-1675.3457 -2262.1475,-1675.4652 -2263.7267,-1675.5449 C -2265.3059,-1675.6245 -2267.2451,-1675.6643 -2269.5441,-1675.6643 C -2275.4197,-1675.6643 -2279.9598,-1676.3174 -2283.1647,-1677.6235 C -2288.5525,-1679.9172 -2291.2464,-1684.1542 -2291.2464,-1690.3345 C -2291.2464,-1696.7695 -2288.4363,-1701.0702 -2282.8163,-1703.2366 C -2279.6811,-1704.447 -2274.9552,-1705.0523 -2268.6384,-1705.0524 C -2263.2739,-1705.0523 -2259.2563,-1704.686 -2256.5856,-1703.9534 C -2251.6623,-1702.6471 -2248.411,-1699.9075 -2246.8318,-1695.7342 L -2252.893,-1691.8159 C -2254.0542,-1693.8865 -2256.7133,-1695.1926 -2260.8702,-1695.7342 C -2262.612,-1696.0209 -2265.6775,-1696.1643 -2270.0667,-1696.1643 C -2279.8205,-1696.1643 -2284.6974,-1694.221 -2284.6974,-1690.3345 C -2284.6974,-1687.6266 -2282.259,-1685.8904 -2277.382,-1685.1258 C -2276.4067,-1684.9665 -2275.1236,-1684.8471 -2273.5328,-1684.7674 C -2271.942,-1684.6878 -2270.0203,-1684.648 -2267.7675,-1684.648 C -2261.8921,-1684.648 -2257.3519,-1683.9949 -2254.1471,-1682.6887 C -2248.7593,-1680.395 -2246.0654,-1676.1581 -2246.0654,-1669.9778 L -2246.0654,-1669.9778 z M -2199.4213,-1684.648 C -2200.0715,-1689.3627 -2202.0804,-1692.5962 -2205.4477,-1694.3484 C -2207.6539,-1695.4953 -2210.9052,-1696.0687 -2215.2015,-1696.0687 C -2219.5211,-1696.0687 -2222.7723,-1695.4953 -2224.9553,-1694.3484 C -2228.3227,-1692.6918 -2230.3199,-1689.4583 -2230.9469,-1684.648 L -2199.4213,-1684.648 z M -2192.5936,-1680.1562 C -2192.5936,-1679.5827 -2192.611,-1678.9216 -2192.6459,-1678.1731 C -2192.6807,-1677.4244 -2192.7446,-1676.5882 -2192.8374,-1675.6643 L -2230.9469,-1675.6643 C -2230.3431,-1670.9494 -2228.346,-1667.7159 -2224.9553,-1665.9639 C -2222.7259,-1664.817 -2219.4746,-1664.2436 -2215.2015,-1664.2436 C -2211.6252,-1664.2436 -2208.9661,-1664.5462 -2207.2243,-1665.1515 C -2204.2982,-1666.1391 -2202.1152,-1668.0982 -2200.6753,-1671.0291 L -2194.6837,-1667.1108 C -2198.0046,-1659.3057 -2204.844,-1655.4032 -2215.2015,-1655.4032 C -2230.2503,-1655.4032 -2237.7746,-1663.6542 -2237.7746,-1680.1562 C -2237.7746,-1696.7536 -2230.2503,-1705.0523 -2215.2015,-1705.0524 C -2200.1296,-1705.0523 -2192.5936,-1696.7536 -2192.5936,-1680.1562 L -2192.5936,-1680.1562 z M -2184.2332,-1655.4032 L -2184.2332,-1664.2436 L -2177.6842,-1664.2436 L -2177.6842,-1655.4032 L -2184.2332,-1655.4032 z M -2142.9537,-1712.1246 C -2143.4646,-1712.1882 -2144.0336,-1712.244 -2144.6606,-1712.2919 C -2145.2876,-1712.3396 -2145.996,-1712.3635 -2146.7856,-1712.3636 C -2150.9194,-1712.3635 -2153.6713,-1711.2804 -2155.0415,-1709.1141 C -2156.3188,-1707.2345 -2156.9342,-1703.3798 -2156.8877,-1697.55 L -2156.8877,-1692.8194 L -2141.7344,-1692.8194 L -2141.7344,-1683.8356 L -2156.8877,-1683.8356 L -2156.8877,-1655.4032 L -2163.4367,-1655.4032 L -2163.4367,-1683.8356 L -2169.3586,-1683.8356 L -2169.3586,-1692.8194 L -2163.4367,-1692.8194 L -2163.4367,-1698.9358 C -2163.4367,-1702.8542 -2163.1058,-1706.2231 -2162.4439,-1709.0424 C -2161.782,-1711.8617 -2160.766,-1714.1793 -2159.3958,-1715.9953 C -2158.0257,-1717.8111 -2156.2955,-1719.157 -2154.2054,-1720.0331 C -2152.1153,-1720.9092 -2149.6421,-1721.3472 -2146.7856,-1721.3472 C -2145.7173,-1721.3472 -2144.678,-1721.2755 -2143.6678,-1721.1322 C -2142.6577,-1720.9888 -2141.6532,-1720.7897 -2140.6545,-1720.5348 L -2142.9537,-1712.1246 z M -2095.16,-1689.0443 C -2096.5535,-1692.0387 -2098.7364,-1694.0457 -2101.7091,-1695.0652 C -2103.5669,-1695.7342 -2106.2608,-1696.0687 -2109.7908,-1696.0687 C -2115.0392,-1696.0687 -2118.7898,-1695.1926 -2121.0424,-1693.4405 C -2124.2473,-1691.083 -2125.8497,-1686.655 -2125.8497,-1680.1562 L -2125.8497,-1655.4032 L -2132.3987,-1655.4032 L -2132.3987,-1705.0524 L -2125.8497,-1705.0524 L -2125.8497,-1699.9871 C -2122.2037,-1703.3639 -2116.8506,-1705.0523 -2109.7908,-1705.0524 C -2099.2938,-1705.0523 -2092.4197,-1700.9905 -2089.1684,-1692.867 L -2095.16,-1689.0443 z"
       id="text3279" />
    <rect
       style="fill:#ffffff;fill-opacity:1;fill-rule:evenodd;stroke:#000000;stroke-width:2;stroke-linecap:round;stroke-linejoin:round;stroke-miterlimit:4;stroke-dasharray:none;stroke-dashoffset:0;stroke-opacity:1"
       id="rect12745"
       width="2"
       height="0"
       x="-1485.7712"
       y="-3673.4324" />
    <path
       id="path6371"
       d=""
       style="fill:#e20909;fill-opacity:1;fill-rule:evenodd;stroke:#000000;stroke-width:4.76190472;stroke-linecap:butt;stroke-linejoin:miter;marker:none;marker-start:none;marker-mid:none;marker-end:none;stroke-miterlimit:4;stroke-dasharray:none;stroke-dashoffset:0;stroke-opacity:1;visibility:visible;display:inline;overflow:visible;enable-background:accumulate" />
    <rect
       style="fill:url(#radialGradient3374);fill-opacity:1;fill-rule:evenodd;stroke:none;stroke-width:1px;stroke-linecap:butt;stroke-linejoin:miter;marker:none;marker-start:none;marker-mid:none;marker-end:none;stroke-miterlimit:4;stroke-dasharray:none;stroke-dashoffset:0;stroke-opacity:1;visibility:visible;display:inline;overflow:visible;enable-background:accumulate"
       id="rect3283"
       width="862.85712"
       height="862.85712"
       x="-2951.23"
       y="-2694.1736" />
  </g>
</svg>
